# xmcd
# 
# Track frame offsets:
#     150
#     24470
#     29685
#     57172
# 
# Disc length: 1083
# 
# Revision: 2
# Processed by: cddbd v1.5.2PL0 Copyright (c) Steve Scherf et al.
# Submitted via: fre:ac v1.0.31
# 
DISCID=2d043904
DTITLE=SOPHIA - 街
DYEAR=1997
DGENRE=Japanese Rock
TTITLE0=街
TTITLE1=Eternal Flame
TTITLE2=Eternal Flame
TTITLE3=街 Instrumental
EXTD=
EXTT0=
EXTT1=
EXTT2=
EXTT3=
PLAYORDER=
